{"asset":{"generator":"Khronos glTF Blender I/O v4.5.47","version":"2.0"},"scene":0,"scenes":[{"name":"Scene","nodes":[4]}],"nodes":[{"mesh":0,"name":"Body.001_Vehicle.001_0"},{"children":[0],"name":"Body.001","rotation":[-0.70710688829422,0,0,0.7071066498756409],"scale":[100,99.99998474121094,99.99998474121094],"translation":[0,0,0]},{"children":[1],"name":"RootNode"},{"children":[2],"name":"105e20852a88401b81e557ec98683697.fbx","rotation":[0.70710688829422,0,0,0.7071066498756409],"translation":[0,0,0],"scale":[1,1,1]},{"children":[3],"name":"Sketchfab_model","rotation":[-0.70710688829422,0,0,0.7071066498756409],"scale":[0.00721778254956007,0.007217783480882645,0.007217783480882645],"translation":[0,0,0]}],"materials":[{"doubleSided":true,"name":"Vehicle.001","pbrMetallicRoughness":{"baseColorTexture":{"index":0,"texCoord":0},"metallicFactor":0,"roughnessFactor":0.6948629021644592,"baseColorFactor":[1,1,1,1]},"emissiveFactor":[0,0,0],"alphaMode":"OPAQUE"}],"meshes":[{"name":"Body.001_Vehicle.001_0","primitives":[{"attributes":{"POSITION":0,"NORMAL":1,"TEXCOORD_0":2},"indices":3,"material":0,"mode":4}]}],"textures":[{"sampler":0,"source":0}],"images":[{"bufferView":4,"mimeType":"image/png","name":"Image_0"}],"accessors":[{"bufferView":0,"componentType":5126,"count":6937,"max":[1.0573574304580688,2.4927122592926025,1.3877180814743042],"min":[-1.0573574304580688,-2.4186389446258545,0.12002376466989517],"type":"VEC3","byteOffset":0},{"bufferView":1,"componentType":5126,"count":6937,"type":"VEC3","byteOffset":0},{"bufferView":2,"componentType":5126,"count":6937,"type":"VEC2","byteOffset":0},{"bufferView":3,"componentType":5123,"count":17436,"type":"SCALAR","byteOffset":0}],"bufferViews":[{"buffer":0,"byteLength":83244,"byteOffset":0,"target":34962,"byteStride":12},{"buffer":0,"byteLength":83244,"byteOffset":83248,"target":34962,"byteStride":12},{"buffer":0,"byteLength":55496,"byteOffset":166496,"target":34962,"byteStride":8},{"buffer":0,"byteLength":34872,"byteOffset":221992,"target":34963},{"buffer":0,"byteOffset":256864,"byteLength":2667}],"samplers":[{"magFilter":9729,"minFilter":9987,"wrapS":10497,"wrapT":10497}],"buffers":[{"name":"chassis_embedded","byteLength":259536,"uri":"data:application/octet-stream;base64,"}]}