{
  "accessors": [
    {
      "bufferView": 2,
      "componentType": 5126,
      "count": 15,
      "max": [
        0.9100109934806824,
        -3.483522891998291,
        0.6877880096435547
      ],
      "min": [
        0.8242179751396179,
        -3.570142984390259,
        0.636568009853363
      ],
      "type": "VEC3"
    },
    {
      "bufferView": 2,
      "byteOffset": 180,
      "componentType": 5126,
      "count": 15,
      "max": [
        0.28171050548553467,
        0.21000783145427704,
        0.9362349510192871
      ],
      "min": [
        -0.28171050548553467,
        -0.21000783145427704,
        -0.9362349510192871
      ],
      "type": "VEC3"
    },
    {
      "bufferView": 1,
      "componentType": 5126,
      "count": 15,
      "max": [
        0.9900000095367432,
        1.0
      ],
      "min": [
        0.0,
        0.009999999776482582
      ],
      "type": "VEC2"
    },
    {
      "bufferView": 0,
      "componentType": 5125,
      "count": 30,
      "type": "SCALAR"
    },
    {
      "bufferView": 2,
      "byteOffset": 360,
      "componentType": 5126,
      "count": 2813,
      "max": [
        1.3956470489501953,
        -0.04701299965381622,
        1.3463510274887085
      ],
      "min": [
        -3.3485069274902344,
        -4.2146220207214355,
        0.07412400096654892
      ],
      "type": "VEC3"
    },
    {
      "bufferView": 2,
      "byteOffset": 34116,
      "componentType": 5126,
      "count": 2813,
      "max": [
        0.9997872710227966,
        0.9975258111953735,
        1.0
      ],
      "min": [
        -0.9975258111953735,
        -0.9979895353317261,
        -1.0
      ],
      "type": "VEC3"
    },
    {
      "bufferView": 0,
      "byteOffset": 120,
      "componentType": 5125,
      "count": 4662,
      "type": "SCALAR"
    },
    {
      "bufferView": 2,
      "byteOffset": 67872,
      "componentType": 5126,
      "count": 7445,
      "max": [
        1.2538800239562988,
        -0.34736698865890503,
        0.8377590179443359
      ],
      "min": [
        -3.09013295173645,
        -4.085625171661377,
        0.10530900210142136
      ],
      "type": "VEC3"
    },
    {
      "bufferView": 2,
      "byteOffset": 157212,
      "componentType": 5126,
      "count": 7445,
      "max": [
        0.9985465407371521,
        0.9857020974159241,
        0.9993767738342285
      ],
      "min": [
        -0.9985465407371521,
        -0.9440886378288269,
        -0.9993767738342285
      ],
      "type": "VEC3"
    },
    {
      "bufferView": 1,
      "byteOffset": 120,
      "componentType": 5126,
      "count": 7445,
      "max": [
        1.0,
        1.0
      ],
      "min": [
        0.0,
        0.0
      ],
      "type": "VEC2"
    },
    {
      "bufferView": 0,
      "byteOffset": 18768,
      "componentType": 5125,
      "count": 14148,
      "type": "SCALAR"
    },
    {
      "bufferView": 2,
      "byteOffset": 246552,
      "componentType": 5126,
      "count": 108,
      "max": [
        0.2289070039987564,
        -0.7372900247573853,
        1.2600539922714233
      ],
      "min": [
        -2.5957589149475098,
        -3.3175671100616455,
        0.843874990940094
      ],
      "type": "VEC3"
    },
    {
      "bufferView": 2,
      "byteOffset": 247848,
      "componentType": 5126,
      "count": 108,
      "max": [
        0.5730061531066895,
        0.8436144590377808,
        0.9309890270233154
      ],
      "min": [
        -0.9613564014434814,
        -0.7537964582443237,
        -0.05930086970329285
      ],
      "type": "VEC3"
    },
    {
      "bufferView": 1,
      "byteOffset": 59680,
      "componentType": 5126,
      "count": 108,
      "max": [
        0.625,
        0.5
      ],
      "min": [
        0.0,
        0.0
      ],
      "type": "VEC2"
    },
    {
      "bufferView": 0,
      "byteOffset": 75360,
      "componentType": 5125,
      "count": 180,
      "type": "SCALAR"
    },
    {
      "bufferView": 2,
      "byteOffset": 249144,
      "componentType": 5126,
      "count": 16,
      "max": [
        1.2049050331115723,
        -2.6777501106262207,
        0.649403989315033
      ],
      "min": [
        0.11772199720144272,
        -4.031396865844727,
        0.4831559956073761
      ],
      "type": "VEC3"
    },
    {
      "bufferView": 2,
      "byteOffset": 249336,
      "componentType": 5126,
      "count": 16,
      "max": [
        0.9793226718902588,
        0.1861964911222458,
        0.45871245861053467
      ],
      "min": [
        0.0981019139289856,
        -0.981819212436676,
        -0.18670432269573212
      ],
      "type": "VEC3"
    },
    {
      "bufferView": 0,
      "byteOffset": 76080,
      "componentType": 5125,
      "count": 36,
      "type": "SCALAR"
    },
    {
      "bufferView": 2,
      "byteOffset": 249528,
      "componentType": 5126,
      "count": 4,
      "max": [
        -1.4054720401763916,
        -0.7372900247573853,
        1.2245620489120483
      ],
      "min": [
        -2.5957589149475098,
        -2.0131568908691406,
        0.9770089983940125
      ],
      "type": "VEC3"
    },
    {
      "bufferView": 0,
      "byteOffset": 76224,
      "componentType": 5125,
      "count": 4,
      "type": "SCALAR"
    },
    {
      "bufferView": 2,
      "byteOffset": 249576,
      "componentType": 5126,
      "count": 36,
      "max": [
        -1.936303973197937,
        -0.3959670066833496,
        0.8275840282440186
      ],
      "min": [
        -3.002824068069458,
        -1.7105809450149536,
        0.6727870106697083
      ],
      "type": "VEC3"
    },
    {
      "bufferView": 2,
      "byteOffset": 250008,
      "componentType": 5126,
      "count": 36,
      "max": [
        0.27460992336273193,
        0.9735457897186279,
        0.18630672991275787
      ],
      "min": [
        -0.9794296622276306,
        -0.532416582107544,
        0.04269859567284584
      ],
      "type": "VEC3"
    },
    {
      "bufferView": 1,
      "byteOffset": 60544,
      "componentType": 5126,
      "count": 36,
      "max": [
        0.0,
        0.0
      ],
      "min": [
        0.0,
        0.0
      ],
      "type": "VEC2"
    },
    {
      "bufferView": 0,
      "byteOffset": 76240,
      "componentType": 5125,
      "count": 60,
      "type": "SCALAR"
    },
    {
      "bufferView": 2,
      "byteOffset": 250440,
      "componentType": 5126,
      "count": 7,
      "max": [
        0.9017590284347534,
        -3.4960339069366455,
        0.6877880096435547
      ],
      "min": [
        0.8459129929542542,
        -3.567655086517334,
        0.6616460084915161
      ],
      "type": "VEC3"
    },
    {
      "bufferView": 2,
      "byteOffset": 250524,
      "componentType": 5126,
      "count": 7,
      "max": [
        0.28171050548553467,
        -0.21000783145427704,
        0.9362349510192871
      ],
      "min": [
        0.28171050548553467,
        -0.21000783145427704,
        0.9362349510192871
      ],
      "type": "VEC3"
    },
    {
      "bufferView": 1,
      "byteOffset": 60832,
      "componentType": 5126,
      "count": 7,
      "max": [
        0.625,
        1.0
      ],
      "min": [
        0.0,
        1.0
      ],
      "type": "VEC2"
    },
    {
      "bufferView": 0,
      "byteOffset": 76480,
      "componentType": 5125,
      "count": 12,
      "type": "SCALAR"
    },
    {
      "bufferView": 2,
      "byteOffset": 250608,
      "componentType": 5126,
      "count": 64,
      "max": [
        0.9167320132255554,
        -3.483522891998291,
        0.690526008605957
      ],
      "min": [
        0.8242179751396179,
        -3.5751540660858154,
        0.636568009853363
      ],
      "type": "VEC3"
    },
    {
      "bufferView": 2,
      "byteOffset": 251376,
      "componentType": 5126,
      "count": 64,
      "max": [
        0.922199010848999,
        0.954819917678833,
        0.9362349510192871
      ],
      "min": [
        -0.922199010848999,
        -0.954819917678833,
        -0.32460686564445496
      ],
      "type": "VEC3"
    },
    {
      "bufferView": 1,
      "byteOffset": 60888,
      "componentType": 5126,
      "count": 64,
      "max": [
        1.0,
        1.0
      ],
      "min": [
        0.0,
        0.5
      ],
      "type": "VEC2"
    },
    {
      "bufferView": 0,
      "byteOffset": 76528,
      "componentType": 5125,
      "count": 96,
      "type": "SCALAR"
    },
    {
      "bufferView": 2,
      "byteOffset": 252144,
      "componentType": 5126,
      "count": 116,
      "max": [
        3.9701480865478516,
        2.4778149127960205,
        0.2255299985408783
      ],
      "min": [
        -5.2004780769348145,
        -7.533827781677246,
        -0.31478700041770935
      ],
      "type": "VEC3"
    },
    {
      "bufferView": 2,
      "byteOffset": 253536,
      "componentType": 5126,
      "count": 116,
      "max": [
        0.9999997615814209,
        1.0,
        1.0
      ],
      "min": [
        -1.0,
        -1.0,
        -1.0
      ],
      "type": "VEC3"
    },
    {
      "bufferView": 1,
      "byteOffset": 61400,
      "componentType": 5126,
      "count": 116,
      "max": [
        1.2038249969482422,
        1.2038249969482422
      ],
      "min": [
        0.019899999722838402,
        -0.07080800086259842
      ],
      "type": "VEC2"
    },
    {
      "bufferView": 0,
      "byteOffset": 76912,
      "componentType": 5125,
      "count": 228,
      "type": "SCALAR"
    },
    {
      "bufferView": 2,
      "byteOffset": 254928,
      "componentType": 5126,
      "count": 28,
      "max": [
        2.329519033432007,
        -2.026758909225464,
        0.3040570020675659
      ],
      "min": [
        0.5937139987945557,
        -3.6839139461517334,
        0.015887999907135963
      ],
      "type": "VEC3"
    },
    {
      "bufferView": 2,
      "byteOffset": 255264,
      "componentType": 5126,
      "count": 28,
      "max": [
        -0.003600057912990451,
        0.3880870044231415,
        0.9995450377464294
      ],
      "min": [
        -0.4884760081768036,
        -0.03639974817633629,
        0.8097602725028992
      ],
      "type": "VEC3"
    },
    {
      "bufferView": 1,
      "byteOffset": 62328,
      "componentType": 5126,
      "count": 28,
      "max": [
        1.0,
        1.0
      ],
      "min": [
        0.0,
        0.0
      ],
      "type": "VEC2"
    },
    {
      "bufferView": 0,
      "byteOffset": 77824,
      "componentType": 5125,
      "count": 42,
      "type": "SCALAR"
    },
    {
      "bufferView": 2,
      "byteOffset": 255600,
      "componentType": 5126,
      "count": 20,
      "max": [
        -0.6811490058898926,
        -4.454143047332764,
        0.12589100003242493
      ],
      "min": [
        -1.5876619815826416,
        -5.239755153656006,
        0.005938999820500612
      ],
      "type": "VEC3"
    },
    {
      "bufferView": 2,
      "byteOffset": 255840,
      "componentType": 5126,
      "count": 20,
      "max": [
        0.5306042432785034,
        0.007600061595439911,
        0.9993475079536438
      ],
      "min": [
        -0.1401011347770691,
        -0.29880237579345703,
        0.7932063341140747
      ],
      "type": "VEC3"
    },
    {
      "bufferView": 1,
      "byteOffset": 62552,
      "componentType": 5126,
      "count": 20,
      "max": [
        1.0,
        1.0
      ],
      "min": [
        0.0,
        0.0
      ],
      "type": "VEC2"
    },
    {
      "bufferView": 0,
      "byteOffset": 77992,
      "componentType": 5125,
      "count": 30,
      "type": "SCALAR"
    },
    {
      "bufferView": 2,
      "byteOffset": 256080,
      "componentType": 5126,
      "count": 888,
      "max": [
        1.2048419713974,
        -0.35157299041748047,
        1.227092981338501
      ],
      "min": [
        -3.0830469131469727,
        -4.125370979309082,
        0.00047900000936351717
      ],
      "type": "VEC3"
    },
    {
      "bufferView": 2,
      "byteOffset": 266736,
      "componentType": 5126,
      "count": 888,
      "max": [
        0.9907440543174744,
        0.9314257502555847,
        0.9993767738342285
      ],
      "min": [
        -0.8188680410385132,
        -0.9438969492912292,
        -0.9993767738342285
      ],
      "type": "VEC3"
    },
    {
      "bufferView": 1,
      "byteOffset": 62712,
      "componentType": 5126,
      "count": 888,
      "max": [
        1.0,
        1.0
      ],
      "min": [
        0.0,
        0.0
      ],
      "type": "VEC2"
    },
    {
      "bufferView": 0,
      "byteOffset": 78112,
      "componentType": 5125,
      "count": 1464,
      "type": "SCALAR"
    },
    {
      "bufferView": 2,
      "byteOffset": 277392,
      "componentType": 5126,
      "count": 142,
      "max": [
        4.239150047302246,
        2.598896026611328,
        0.2255290001630783
      ],
      "min": [
        -5.739634990692139,
        -7.533827781677246,
        -0.31478700041770935
      ],
      "type": "VEC3"
    },
    {
      "bufferView": 2,
      "byteOffset": 279096,
      "componentType": 5126,
      "count": 142,
      "max": [
        1.0,
        1.0,
        1.0
      ],
      "min": [
        -0.9397000074386597,
        -1.0,
        -1.0
      ],
      "type": "VEC3"
    },
    {
      "bufferView": 1,
      "byteOffset": 69816,
      "componentType": 5126,
      "count": 142,
      "max": [
        0.9779840111732483,
        1.0
      ],
      "min": [
        0.03300999850034714,
        0.0
      ],
      "type": "VEC2"
    },
    {
      "bufferView": 0,
      "byteOffset": 83968,
      "componentType": 5125,
      "count": 294,
      "type": "SCALAR"
    }
  ],
  "asset": {
    "extras": {
      "author": "SentientSundae (https://sketchfab.com/SentientSundae)",
      "license": "CC-BY-4.0 (http://creativecommons.org/licenses/by/4.0/)",
      "source": "https://sketchfab.com/3d-models/bmw-m3-e92-gtr-low-poly-7e2e8f514a5f432c945e897eec7bb19a",
      "title": "BMW M3 E92 GTR | Low Poly"
    },
    "generator": "Sketchfab-12.67.0",
    "version": "2.0"
  },
  "bufferViews": [
    {
      "buffer": 0,
      "byteLength": 85144,
      "name": "floatBufferViews",
      "target": 34963
    },
    {
      "buffer": 0,
      "byteLength": 70952,
      "byteOffset": 85144,
      "byteStride": 8,
      "name": "floatBufferViews",
      "target": 34962
    },
    {
      "buffer": 0,
      "byteLength": 280800,
      "byteOffset": 156096,
      "byteStride": 12,
      "name": "floatBufferViews",
      "target": 34962
    }
  ],
  "buffers": [
    {
      "byteLength": 436896,
      "uri": "scene.bin"
    }
  ],
  "extensionsUsed": [
    "KHR_materials_clearcoat"
  ],
  "images": [
    {
      "uri": "textures/Street_metallicRoughness.png"
    }
  ],
  "materials": [
    {
      "doubleSided": true,
      "name": "Badge",
      "pbrMetallicRoughness": {
        "baseColorFactor": [
          0.00397,
          0.004714,
          0.8,
          1.0
        ],
        "metallicFactor": 0.0,
        "roughnessFactor": 0.7396594374000001
      }
    },
    {
      "doubleSided": true,
      "extensions": {
        "KHR_materials_clearcoat": {
          "clearcoatFactor": 1.0,
          "clearcoatRoughnessFactor": 0.04
        }
      },
      "name": "material",
      "pbrMetallicRoughness": {
        "baseColorFactor": [
          0.8,
          0.8,
          0.8,
          1.0
        ],
        "metallicFactor": 0.5601338949241352,
        "roughnessFactor": 0.7402815220000001
      }
    },
    {
      "doubleSided": true,
      "name": "Dark_Metal",
      "pbrMetallicRoughness": {
        "baseColorFactor": [
          0.08714,
          0.08714,
          0.08714,
          1.0
        ],
        "metallicFactor": 0.0,
        "roughnessFactor": 0.8063508327
      }
    },
    {
      "doubleSided": true,
      "name": "Glass",
      "pbrMetallicRoughness": {
        "baseColorFactor": [
          0.003642,
          0.003642,
          0.003642,
          1.0
        ],
        "metallicFactor": 0.0,
        "roughnessFactor": 0.4522774425
      }
    },
    {
      "doubleSided": true,
      "emissiveFactor": [
        1.0,
        1.0,
        1.0
      ],
      "name": "Material.001",
      "pbrMetallicRoughness": {
        "baseColorFactor": [
          0.8,
          0.8,
          0.8,
          1.0
        ],
        "metallicFactor": 0.0,
        "roughnessFactor": 0.7880318376
      }
    },
    {
      "doubleSided": true,
      "name": "Material.002",
      "pbrMetallicRoughness": {
        "baseColorFactor": [
          0.8,
          0.8,
          0.8,
          1.0
        ],
        "metallicFactor": 0.0,
        "roughnessFactor": 0.7880318376
      }
    },
    {
      "doubleSided": true,
      "name": "Material.004",
      "pbrMetallicRoughness": {
        "metallicFactor": 0.0
      }
    },
    {
      "doubleSided": true,
      "name": "Material.005",
      "pbrMetallicRoughness": {
        "baseColorFactor": [
          0.005605,
          0.005605,
          0.005605,
          1.0
        ],
        "metallicFactor": 0.0,
        "roughnessFactor": 0.8063508327
      }
    },
    {
      "doubleSided": true,
      "name": "Material.011",
      "pbrMetallicRoughness": {
        "baseColorFactor": [
          0.173355,
          0.173355,
          0.173355,
          1.0
        ],
        "metallicFactor": 0.0
      }
    },
    {
      "doubleSided": true,
      "name": "Paper",
      "pbrMetallicRoughness": {
        "baseColorFactor": [
          0.559601,
          0.559601,
          0.559601,
          1.0
        ],
        "metallicFactor": 0.0,
        "roughnessFactor": 0.8063508327
      }
    },
    {
      "doubleSided": true,
      "name": "Paper.001",
      "pbrMetallicRoughness": {
        "baseColorFactor": [
          0.401969,
          0.401969,
          0.401969,
          1.0
        ],
        "metallicFactor": 0.0,
        "roughnessFactor": 0.8063508327
      }
    },
    {
      "doubleSided": true,
      "name": "Rubber",
      "pbrMetallicRoughness": {
        "baseColorFactor": [
          0.008076,
          0.008076,
          0.008076,
          1.0
        ],
        "metallicFactor": 0.0
      }
    },
    {
      "doubleSided": true,
      "name": "Street",
      "pbrMetallicRoughness": {
        "baseColorFactor": [
          0.073236,
          0.073236,
          0.073236,
          1.0
        ],
        "metallicFactor": 0.0,
        "metallicRoughnessTexture": {
          "index": 0
        }
      }
    }
  ],
  "meshes": [
    {
      "name": "Object_0",
      "primitives": [
        {
          "attributes": {
            "NORMAL": 1,
            "POSITION": 0,
            "TEXCOORD_0": 2
          },
          "indices": 3,
          "material": 0,
          "mode": 4
        }
      ]
    },
    {
      "name": "Object_1",
      "primitives": [
        {
          "attributes": {
            "NORMAL": 5,
            "POSITION": 4
          },
          "indices": 6,
          "material": 1,
          "mode": 4
        }
      ]
    },
    {
      "name": "Object_2",
      "primitives": [
        {
          "attributes": {
            "NORMAL": 8,
            "POSITION": 7,
            "TEXCOORD_0": 9
          },
          "indices": 10,
          "material": 2,
          "mode": 4
        }
      ]
    },
    {
      "name": "Object_3",
      "primitives": [
        {
          "attributes": {
            "NORMAL": 12,
            "POSITION": 11,
            "TEXCOORD_0": 13
          },
          "indices": 14,
          "material": 3,
          "mode": 4
        }
      ]
    },
    {
      "name": "Object_4",
      "primitives": [
        {
          "attributes": {
            "NORMAL": 16,
            "POSITION": 15
          },
          "indices": 17,
          "material": 4,
          "mode": 4
        }
      ]
    },
    {
      "name": "Object_5",
      "primitives": [
        {
          "attributes": {
            "POSITION": 18
          },
          "indices": 19,
          "material": 5,
          "mode": 1
        }
      ]
    },
    {
      "name": "Object_6",
      "primitives": [
        {
          "attributes": {
            "NORMAL": 21,
            "POSITION": 20,
            "TEXCOORD_0": 22
          },
          "indices": 23,
          "material": 5,
          "mode": 4
        }
      ]
    },
    {
      "name": "Object_7",
      "primitives": [
        {
          "attributes": {
            "NORMAL": 25,
            "POSITION": 24,
            "TEXCOORD_0": 26
          },
          "indices": 27,
          "material": 6,
          "mode": 4
        }
      ]
    },
    {
      "name": "Object_8",
      "primitives": [
        {
          "attributes": {
            "NORMAL": 29,
            "POSITION": 28,
            "TEXCOORD_0": 30
          },
          "indices": 31,
          "material": 7,
          "mode": 4
        }
      ]
    },
    {
      "name": "Object_9",
      "primitives": [
        {
          "attributes": {
            "NORMAL": 33,
            "POSITION": 32,
            "TEXCOORD_0": 34
          },
          "indices": 35,
          "material": 8,
          "mode": 4
        }
      ]
    },
    {
      "name": "Object_10",
      "primitives": [
        {
          "attributes": {
            "NORMAL": 37,
            "POSITION": 36,
            "TEXCOORD_0": 38
          },
          "indices": 39,
          "material": 9,
          "mode": 4
        }
      ]
    },
    {
      "name": "Object_11",
      "primitives": [
        {
          "attributes": {
            "NORMAL": 41,
            "POSITION": 40,
            "TEXCOORD_0": 42
          },
          "indices": 43,
          "material": 10,
          "mode": 4
        }
      ]
    },
    {
      "name": "Object_12",
      "primitives": [
        {
          "attributes": {
            "NORMAL": 45,
            "POSITION": 44,
            "TEXCOORD_0": 46
          },
          "indices": 47,
          "material": 11,
          "mode": 4
        }
      ]
    },
    {
      "name": "Object_13",
      "primitives": [
        {
          "attributes": {
            "NORMAL": 49,
            "POSITION": 48,
            "TEXCOORD_0": 50
          },
          "indices": 51,
          "material": 12,
          "mode": 4
        }
      ]
    }
  ],
  "nodes": [
    {
      "children": [
        1
      ],
      "matrix": [
        1.0,
        0.0,
        0.0,
        0.0,
        0.0,
        2.220446049250313e-16,
        -1.0,
        0.0,
        0.0,
        1.0,
        2.220446049250313e-16,
        0.0,
        0.0,
        0.0,
        0.0,
        1.0
      ],
      "name": "Sketchfab_model"
    },
    {
      "children": [
        2,
        3,
        4,
        5,
        6,
        7,
        8,
        9,
        10,
        11,
        12,
        13,
        14,
        15
      ],
      "name": "bmw-m3_export.obj.cleaner.materialmerger.gles"
    },
    {
      "mesh": 0,
      "name": "Object_2"
    },
    {
      "mesh": 1,
      "name": "Object_3"
    },
    {
      "mesh": 2,
      "name": "Object_4"
    },
    {
      "mesh": 3,
      "name": "Object_5"
    },
    {
      "mesh": 4,
      "name": "Object_6"
    },
    {
      "mesh": 5,
      "name": "Object_7"
    },
    {
      "mesh": 6,
      "name": "Object_8"
    },
    {
      "mesh": 7,
      "name": "Object_9"
    },
    {
      "mesh": 8,
      "name": "Object_10"
    },
    {
      "mesh": 9,
      "name": "Object_11"
    },
    {
      "mesh": 10,
      "name": "Object_12"
    },
    {
      "mesh": 11,
      "name": "Object_13"
    },
    {
      "mesh": 12,
      "name": "Object_14"
    },
    {
      "mesh": 13,
      "name": "Object_15"
    }
  ],
  "samplers": [
    {
      "magFilter": 9729,
      "minFilter": 9987,
      "wrapS": 10497,
      "wrapT": 10497
    }
  ],
  "scene": 0,
  "scenes": [
    {
      "name": "Sketchfab_Scene",
      "nodes": [
        0
      ]
    }
  ],
  "textures": [
    {
      "sampler": 0,
      "source": 0
    }
  ]
}
