{"asset":{"generator":"Khronos glTF Blender I/O v4.5.47","version":"2.0"},"scene":0,"scenes":[{"name":"Scene","nodes":[4]}],"nodes":[{"mesh":0,"name":"Object_4"},{"children":[0],"name":"Plane_1","rotation":[0,0.7071068286895752,0,0.7071067094802856],"scale":[0.32876285910606384,0.32876285910606384,0.32876288890838623],"translation":[0,0,0]},{"children":[1],"name":"GLTF_SceneRootNode","rotation":[0.70710688829422,0,0,0.7071066498756409],"translation":[0,0,0],"scale":[1,1,1]},{"children":[2],"name":"root"},{"children":[3],"name":"Sketchfab_model","rotation":[-0.5008299350738525,0.4991687834262848,0.4991687834262848,0.5008298754692078],"translation":[0,0,0],"scale":[1,1,1]}],"materials":[{"doubleSided":true,"name":"Material.003","pbrMetallicRoughness":{"baseColorFactor":[0,0,0,1],"metallicFactor":0,"roughnessFactor":0.699999988079071},"emissiveFactor":[0,0,0],"alphaMode":"OPAQUE"},{"doubleSided":true,"name":"Material.004","pbrMetallicRoughness":{"baseColorFactor":[0.24695399403572083,0.24695399403572083,0.24695399403572083,1],"roughnessFactor":0.4000000059604645,"metallicFactor":1},"emissiveFactor":[0,0,0],"alphaMode":"OPAQUE"}],"meshes":[{"name":"Object_0.001","primitives":[{"attributes":{"POSITION":0,"NORMAL":1,"TEXCOORD_0":2},"indices":3,"material":0,"mode":4},{"attributes":{"POSITION":4,"NORMAL":5,"TEXCOORD_0":6},"indices":7,"material":1,"mode":4}]}],"accessors":[{"bufferView":0,"componentType":5126,"count":52672,"max":[1.233128547668457,3.0407114028930664,3.0394160747528076],"min":[-1.233128547668457,-3.0399487018585205,-3.040112257003784],"type":"VEC3","byteOffset":0},{"bufferView":1,"componentType":5126,"count":52672,"type":"VEC3","byteOffset":0},{"bufferView":2,"componentType":5126,"count":52672,"type":"VEC2","byteOffset":0},{"bufferView":3,"componentType":5123,"count":274752,"type":"SCALAR","byteOffset":0},{"bufferView":4,"componentType":5126,"count":4271,"max":[1.1987016201019287,2.561846971511841,2.579850435256958],"min":[-1.2342028617858887,-2.561846971511841,-2.5757906436920166],"type":"VEC3","byteOffset":0},{"bufferView":5,"componentType":5126,"count":4271,"type":"VEC3","byteOffset":0},{"bufferView":6,"componentType":5126,"count":4271,"type":"VEC2","byteOffset":0},{"bufferView":7,"componentType":5123,"count":19194,"type":"SCALAR","byteOffset":0}],"bufferViews":[{"buffer":0,"byteLength":632064,"byteOffset":0,"target":34962,"byteStride":12},{"buffer":0,"byteLength":632064,"byteOffset":632064,"target":34962,"byteStride":12},{"buffer":0,"byteLength":421376,"byteOffset":1264128,"target":34962,"byteStride":8},{"buffer":0,"byteLength":549504,"byteOffset":1685504,"target":34963},{"buffer":0,"byteLength":51252,"byteOffset":2235008,"target":34962,"byteStride":12},{"buffer":0,"byteLength":51252,"byteOffset":2286264,"target":34962,"byteStride":12},{"buffer":0,"byteLength":34168,"byteOffset":2337520,"target":34962,"byteStride":8},{"buffer":0,"byteLength":38388,"byteOffset":2371688,"target":34963}],"buffers":[{"name":"wheel_embedded","byteLength":2410080,"uri":"data:application/octet-stream;base64,"}]}