{
  "accessors": [
    {
      "bufferView": 2,
      "componentType": 5126,
      "count": 648,
      "max": [
        43.587398529052734,
        191.97999572753906,
        10.45829963684082
      ],
      "min": [
        38.78350067138672,
        189.50799560546875,
        10.17650032043457
      ],
      "type": "VEC3"
    },
    {
      "bufferView": 2,
      "byteOffset": 7776,
      "componentType": 5126,
      "count": 648,
      "max": [
        0.9984844326972961,
        0.9998760223388672,
        1.0
      ],
      "min": [
        -0.9992259740829468,
        -0.9992259740829468,
        -1.0
      ],
      "type": "VEC3"
    },
    {
      "bufferView": 1,
      "componentType": 5126,
      "count": 648,
      "max": [
        0.4522880017757416,
        0.4762420058250427
      ],
      "min": [
        0.10462000221014023,
        0.035112299025058746
      ],
      "type": "VEC2"
    },
    {
      "bufferView": 0,
      "componentType": 5125,
      "count": 1350,
      "type": "SCALAR"
    }
  ],
  "asset": {
    "extras": {
      "author": "Maxime66410 (https://sketchfab.com/Maxime66410)",
      "license": "CC-BY-4.0 (http://creativecommons.org/licenses/by/4.0/)",
      "source": "https://sketchfab.com/3d-models/instrument-guitar-ultra-low-poly-6ae97568d37b4cb192177851da8606ef",
      "title": "Instrument Guitar Ultra Low Poly"
    },
    "generator": "Sketchfab-12.66.0",
    "version": "2.0"
  },
  "bufferViews": [
    {
      "buffer": 0,
      "byteLength": 5400,
      "name": "floatBufferViews",
      "target": 34963
    },
    {
      "buffer": 0,
      "byteLength": 5184,
      "byteOffset": 5400,
      "byteStride": 8,
      "name": "floatBufferViews",
      "target": 34962
    },
    {
      "buffer": 0,
      "byteLength": 15552,
      "byteOffset": 10584,
      "byteStride": 12,
      "name": "floatBufferViews",
      "target": 34962
    }
  ],
  "buffers": [
    {
      "byteLength": 26136,
      "uri": "scene.bin"
    }
  ],
  "images": [
    {
      "uri": "textures/Meshessipropinstrumentguitar041Mtl_baseColor.png"
    },
    {
      "uri": "textures/Meshessipropinstrumentguitar041Mtl_emissive.png"
    }
  ],
  "materials": [
    {
      "alphaCutoff": 0.0,
      "alphaMode": "MASK",
      "doubleSided": true,
      "emissiveTexture": {
        "index": 1
      },
      "name": "Meshessipropinstrumentguitar041Mtl",
      "pbrMetallicRoughness": {
        "baseColorTexture": {
          "index": 0
        },
        "metallicFactor": 0.0
      }
    }
  ],
  "meshes": [
    {
      "name": "Object_0",
      "primitives": [
        {
          "attributes": {
            "NORMAL": 1,
            "POSITION": 0,
            "TEXCOORD_0": 2
          },
          "indices": 3,
          "material": 0,
          "mode": 4
        }
      ]
    }
  ],
  "nodes": [
    {
      "children": [
        1
      ],
      "matrix": [
        1.0,
        0.0,
        0.0,
        0.0,
        0.0,
        2.220446049250313e-16,
        -1.0,
        0.0,
        0.0,
        1.0,
        2.220446049250313e-16,
        0.0,
        0.0,
        0.0,
        0.0,
        1.0
      ],
      "name": "Sketchfab_model"
    },
    {
      "children": [
        2
      ],
      "name": "Prop_Instrument_Guitar_04.obj.cleaner.materialmerger.gles"
    },
    {
      "mesh": 0,
      "name": "Object_2"
    }
  ],
  "samplers": [
    {
      "magFilter": 9729,
      "minFilter": 9987,
      "wrapS": 10497,
      "wrapT": 10497
    }
  ],
  "scene": 0,
  "scenes": [
    {
      "name": "Sketchfab_Scene",
      "nodes": [
        0
      ]
    }
  ],
  "textures": [
    {
      "sampler": 0,
      "source": 0
    },
    {
      "sampler": 0,
      "source": 1
    }
  ]
}
