<?xml version="1.0" encoding="iso-8859-1"?>
<!-- Uploaded to: SVG Repo, www.svgrepo.com, Generator: SVG Repo Mixer Tools -->
<svg version="1.1" id="Layer_1" xmlns="http://www.w3.org/2000/svg" xmlns:xlink="http://www.w3.org/1999/xlink" 
	 viewBox="0 0 512 512" xml:space="preserve">
<rect x="53.333" y="15.238" style="fill:#AFE1ED;" width="405.333" height="401.737"/>
<g>
	<path style="fill:#00AE90;" d="M162.356,305.039c28.53,50.557,97.698,41.422,97.698,41.422s43.573-54.488,15.043-105.045
		s-118.362-78.039-118.362-78.039S133.826,254.482,162.356,305.039z"/>
	<path style="fill:#00AE90;" d="M355.264,163.377c0,0-61.912,18.944-99.264,54.306c7.639,7.232,14.254,15.148,19.098,23.733
		c28.53,50.557-15.043,105.045-15.043,105.045s-1.469,0.192-4.055,0.367c15.202,1.027,69.26,1.419,93.644-41.79
		C378.174,254.481,355.264,163.377,355.264,163.377z"/>
</g>
<path d="M203.915,262.217c-0.989,0-1.996-0.093-2.97-0.29c-0.977-0.198-1.937-0.488-2.85-0.869c-0.93-0.381-1.813-0.853-2.636-1.402
	c-0.838-0.547-1.615-1.187-2.316-1.888c-0.701-0.701-1.341-1.48-1.89-2.318c-0.549-0.823-1.021-1.722-1.402-2.635
	c-0.381-0.916-0.67-1.874-0.869-2.85c-0.198-0.977-0.305-1.981-0.305-2.971s0.107-1.998,0.305-2.987
	c0.198-0.975,0.488-1.92,0.869-2.85c0.381-0.914,0.853-1.798,1.402-2.621c0.549-0.838,1.189-1.617,1.89-2.318
	c0.701-0.701,1.478-1.341,2.316-1.905c0.823-0.547,1.707-1.021,2.636-1.402c0.914-0.381,1.873-0.669,2.85-0.869
	c1.966-0.396,3.992-0.396,5.958,0c0.96,0.2,1.92,0.488,2.848,0.869c0.916,0.381,1.8,0.855,2.622,1.402
	c0.838,0.564,1.615,1.204,2.316,1.905s1.341,1.48,1.905,2.318c0.549,0.823,1.021,1.707,1.402,2.621
	c0.381,0.93,0.67,1.874,0.869,2.85c0.198,0.989,0.288,1.996,0.288,2.987s-0.091,1.996-0.288,2.971
	c-0.198,0.975-0.488,1.935-0.869,2.85c-0.381,0.928-0.853,1.812-1.402,2.635c-0.564,0.838-1.204,1.617-1.905,2.318
	c-0.701,0.701-1.478,1.341-2.316,1.888c-0.823,0.549-1.707,1.021-2.622,1.402c-0.928,0.381-1.888,0.67-2.848,0.869
	C205.912,262.126,204.907,262.217,203.915,262.217z"/>
<path d="M363.474,91.429c-1.006,0-1.998-0.093-2.988-0.29c-0.975-0.198-1.935-0.503-2.848-0.884c-0.916-0.381-1.8-0.838-2.636-1.402
	c-0.823-0.547-1.615-1.187-2.316-1.89c-0.701-0.701-1.342-1.478-1.89-2.316c-0.549-0.823-1.021-1.707-1.402-2.636
	c-0.381-0.914-0.67-1.873-0.869-2.848c-0.198-0.977-0.288-1.982-0.288-2.971c0-0.99,0.091-1.998,0.288-2.971
	c0.197-0.974,0.488-1.935,0.869-2.85c0.381-0.93,0.853-1.812,1.402-2.635c0.547-0.84,1.189-1.617,1.89-2.318
	c0.701-0.701,1.492-1.341,2.316-1.89c0.838-0.547,1.722-1.021,2.636-1.402c0.914-0.381,1.873-0.686,2.848-0.867
	c1.966-0.398,3.992-0.398,5.958,0c0.977,0.181,1.937,0.486,2.85,0.867c0.916,0.381,1.8,0.855,2.636,1.402
	c0.823,0.549,1.615,1.189,2.316,1.89c0.701,0.701,1.341,1.478,1.89,2.318c0.549,0.823,1.021,1.705,1.402,2.635
	c0.381,0.916,0.67,1.874,0.869,2.85c0.198,0.975,0.288,1.981,0.288,2.971c0,0.989-0.091,1.996-0.288,2.971
	c-0.198,0.975-0.488,1.935-0.869,2.848c-0.381,0.93-0.853,1.813-1.402,2.636c-0.549,0.838-1.189,1.615-1.89,2.316
	c-0.701,0.702-1.492,1.342-2.316,1.89c-0.838,0.564-1.722,1.021-2.636,1.402c-0.914,0.381-1.873,0.686-2.85,0.884
	C365.455,91.336,364.465,91.429,363.474,91.429z"/>
<rect x="53.333" y="416.975" style="fill:#6FBBDC;" width="405.333" height="79.787"/>
<path d="M458.667,0H53.333c-8.414,0-15.238,6.824-15.238,15.238v401.733v79.791c0,8.414,6.824,15.238,15.238,15.238h405.333
	c8.414,0,15.238-6.824,15.238-15.238v-79.791V15.238C473.905,6.824,467.081,0,458.667,0z M443.429,30.476v371.256H68.571V91.429
	h249.181c8.414,0,15.238-6.824,15.238-15.238s-6.824-15.238-15.238-15.238H68.571V30.476H443.429z M443.429,481.524H68.571v-49.315
	h374.857V481.524z"/>
<path d="M161.193,148.806c-3.994-1.222-8.309-0.751-11.948,1.301c-3.636,2.053-6.27,5.506-7.288,9.556
	c-0.995,3.962-24.035,97.643,7.128,152.866c24.782,43.912,73.675,49.833,98.245,49.833c3.451,0,6.412-0.117,8.77-0.262
	c2.28,0.133,5.079,0.241,8.355,0.241c24.517,0,73.676-5.896,98.459-49.812c31.165-55.223,8.125-148.905,7.13-152.866
	c-1.018-4.049-3.653-7.503-7.288-9.556c-3.639-2.054-7.959-2.523-11.948-1.301c-2.444,0.748-55.579,17.253-94.845,48.742
	C216.719,166.089,164.123,149.704,161.193,148.806z M175.627,297.55c-18.397-32.6-12.21-86.795-7.465-113.926
	c19.75,7.663,53.63,22.877,76.599,44.323c0.248,0.273,0.494,0.546,0.763,0.802c5.195,4.919,9.544,9.911,12.995,14.9
	c0.221,0.322,0.434,0.646,0.649,0.969c0.344,0.515,0.69,1.032,1.016,1.548c0.57,0.907,1.123,1.818,1.643,2.741
	c0.555,0.983,1.07,1.969,1.557,2.958c0.021,0.044,0.049,0.09,0.07,0.134c0.344,0.702,0.649,1.41,0.96,2.115
	c0.149,0.338,0.317,0.674,0.459,1.013c0.264,0.629,0.491,1.26,0.73,1.891c0.158,0.418,0.334,0.834,0.48,1.253
	c0.212,0.603,0.392,1.207,0.582,1.81c0.14,0.445,0.297,0.891,0.425,1.336c0.169,0.585,0.308,1.172,0.457,1.757
	c0.119,0.466,0.251,0.931,0.36,1.397c0.13,0.565,0.232,1.131,0.344,1.696c0.096,0.485,0.206,0.971,0.29,1.455
	c0.096,0.556,0.168,1.109,0.248,1.664c0.072,0.492,0.154,0.986,0.213,1.478c0.066,0.547,0.108,1.093,0.16,1.638
	c0.047,0.498,0.104,0.997,0.139,1.493c0.038,0.536,0.053,1.068,0.078,1.602c0.023,0.504,0.055,1.01,0.066,1.512
	c0.012,0.527,0.003,1.051,0.003,1.576c0,0.506,0.006,1.012-0.005,1.513c-0.012,0.52-0.041,1.035-0.066,1.551
	c-0.023,0.506-0.038,1.012-0.072,1.513c-0.034,0.507-0.084,1.012-0.128,1.516c-0.044,0.506-0.082,1.012-0.136,1.515
	c-0.053,0.497-0.122,0.989-0.184,1.484c-0.064,0.504-0.123,1.01-0.197,1.51c-0.07,0.483-0.154,0.96-0.233,1.44
	c-0.084,0.504-0.163,1.01-0.254,1.512c-0.087,0.468-0.183,0.928-0.277,1.393c-0.102,0.504-0.2,1.01-0.311,1.51
	c-0.101,0.454-0.21,0.901-0.317,1.35c-0.119,0.501-0.235,1.003-0.36,1.498c-0.113,0.442-0.233,0.876-0.352,1.314
	c-0.133,0.494-0.265,0.987-0.405,1.475c-0.123,0.427-0.253,0.846-0.381,1.269c-0.148,0.489-0.294,0.98-0.448,1.461
	c-0.13,0.407-0.265,0.806-0.399,1.207c-0.162,0.486-0.323,0.975-0.491,1.455c-0.136,0.389-0.276,0.77-0.416,1.152
	c-0.174,0.478-0.347,0.96-0.526,1.429c-0.142,0.373-0.286,0.739-0.43,1.108c-0.183,0.469-0.367,0.939-0.555,1.399
	c-0.145,0.354-0.291,0.701-0.437,1.05c-0.192,0.46-0.386,0.922-0.581,1.373c-0.146,0.335-0.293,0.663-0.439,0.993
	c-0.2,0.45-0.401,0.901-0.603,1.339c-0.011,0.024-0.023,0.049-0.034,0.073l-20.754-36.776c-4.137-7.331-13.434-9.915-20.76-5.781
	c-7.33,4.137-9.917,13.431-5.781,20.76l20.811,36.876C214.824,329.083,189.181,321.568,175.627,297.55z M343.842,183.63
	c4.744,27.136,10.929,81.321-7.468,113.92c-11.343,20.102-31.141,28.658-48.574,32.128c0.061-0.13,0.122-0.267,0.183-0.398
	c0.242-0.52,0.485-1.044,0.725-1.576c0.107-0.235,0.212-0.472,0.317-0.709c0.218-0.488,0.434-0.98,0.651-1.478
	c0.105-0.244,0.212-0.488,0.317-0.733c0.227-0.533,0.453-1.074,0.678-1.618c0.085-0.207,0.172-0.413,0.258-0.623
	c0.616-1.512,1.216-3.061,1.797-4.648c0.082-0.226,0.163-0.454,0.245-0.681c0.206-0.57,0.408-1.143,0.608-1.723
	c0.094-0.274,0.187-0.549,0.282-0.826c0.187-0.556,0.373-1.115,0.555-1.681c0.088-0.274,0.178-0.549,0.265-0.826
	c0.2-0.634,0.395-1.272,0.588-1.915c0.059-0.201,0.122-0.401,0.181-0.603c0.25-0.85,0.492-1.707,0.725-2.572
	c0.043-0.157,0.082-0.315,0.123-0.472c0.187-0.704,0.37-1.413,0.547-2.126c0.072-0.291,0.14-0.584,0.21-0.876
	c0.142-0.593,0.28-1.187,0.413-1.786c0.072-0.322,0.143-0.645,0.212-0.969c0.13-0.602,0.253-1.205,0.372-1.813
	c0.061-0.305,0.122-0.606,0.18-0.913c0.14-0.741,0.271-1.486,0.398-2.234c0.029-0.171,0.061-0.338,0.088-0.509
	c0.149-0.913,0.286-1.832,0.414-2.757c0.037-0.27,0.069-0.541,0.104-0.811c0.087-0.663,0.169-1.329,0.242-1.998
	c0.038-0.344,0.073-0.69,0.108-1.038c0.061-0.61,0.119-1.221,0.169-1.836c0.03-0.36,0.059-0.719,0.085-1.08
	c0.046-0.637,0.084-1.277,0.119-1.918c0.017-0.326,0.038-0.651,0.052-0.978c0.04-0.923,0.07-1.851,0.084-2.784
	c0.002-0.116,0.002-0.233,0.003-0.349c0.011-0.885,0.008-1.772-0.006-2.664c-0.006-0.341-0.018-0.683-0.027-1.026
	c-0.017-0.643-0.038-1.288-0.069-1.934c-0.018-0.39-0.041-0.78-0.064-1.17c-0.037-0.617-0.081-1.236-0.13-1.856
	c-0.03-0.389-0.061-0.777-0.098-1.167c-0.062-0.677-0.137-1.356-0.215-2.036c-0.038-0.325-0.07-0.649-0.111-0.977
	c-0.123-0.981-0.264-1.966-0.421-2.953c-0.044-0.277-0.099-0.556-0.146-0.834c-0.123-0.73-0.253-1.461-0.396-2.194
	c-0.078-0.395-0.162-0.791-0.245-1.184c-0.131-0.626-0.267-1.251-0.413-1.879c-0.098-0.418-0.198-0.837-0.302-1.256
	c-0.154-0.623-0.318-1.248-0.488-1.873c-0.11-0.405-0.216-0.811-0.334-1.216c-0.209-0.728-0.433-1.458-0.663-2.188
	c-0.093-0.294-0.177-0.588-0.273-0.884c-0.325-0.995-0.67-1.992-1.035-2.987c-0.133-0.361-0.277-0.724-0.414-1.085
	c-0.253-0.664-0.51-1.33-0.782-1.995c-0.174-0.425-0.355-0.85-0.536-1.274c-0.261-0.613-0.53-1.227-0.808-1.839
	c-0.195-0.431-0.392-0.862-0.596-1.295c-0.297-0.632-0.609-1.265-0.925-1.897c-0.201-0.402-0.396-0.805-0.603-1.207
	c-0.436-0.844-0.893-1.687-1.362-2.531c-0.094-0.168-0.177-0.337-0.271-0.504c-0.044-0.078-0.094-0.155-0.139-0.233
	c-0.584-1.029-1.195-2.045-1.819-3.054c-0.212-0.343-0.428-0.686-0.646-1.029c-0.574-0.902-1.164-1.8-1.771-2.688
	c-0.241-0.354-0.486-0.707-0.733-1.061c-0.582-0.83-1.178-1.655-1.787-2.472c-0.384-0.518-0.777-1.036-1.175-1.553
	c-0.334-0.433-0.675-0.861-1.016-1.291c-0.419-0.529-0.818-1.059-1.25-1.586C299.997,202.176,327.043,190.158,343.842,183.63z"/>
</svg>