{
  "accessors": [
    {
      "bufferView": 2,
      "componentType": 5126,
      "count": 1434,
      "max": [
        3.134744167327881,
        5.084197521209717,
        20.5
      ],
      "min": [
        -3.134744167327881,
        -4.503614902496338,
        -20.5
      ],
      "type": "VEC3"
    },
    {
      "bufferView": 2,
      "byteOffset": 17208,
      "componentType": 5126,
      "count": 1434,
      "max": [
        1.0,
        1.0,
        1.0
      ],
      "min": [
        -1.0,
        -1.0,
        -1.0
      ],
      "type": "VEC3"
    },
    {
      "bufferView": 1,
      "componentType": 5126,
      "count": 1434,
      "max": [
        1.0,
        1.0
      ],
      "min": [
        0.0,
        0.0
      ],
      "type": "VEC2"
    },
    {
      "bufferView": 0,
      "componentType": 5125,
      "count": 1719,
      "type": "SCALAR"
    },
    {
      "bufferView": 2,
      "byteOffset": 34416,
      "componentType": 5126,
      "count": 534,
      "max": [
        3.134744167327881,
        3.700000047683716,
        20.0
      ],
      "min": [
        -3.134744167327881,
        -3.799999952316284,
        -20.0
      ],
      "type": "VEC3"
    },
    {
      "bufferView": 2,
      "byteOffset": 40824,
      "componentType": 5126,
      "count": 534,
      "max": [
        1.0,
        1.0,
        1.0
      ],
      "min": [
        -1.0,
        -1.0,
        -1.0
      ],
      "type": "VEC3"
    },
    {
      "bufferView": 1,
      "byteOffset": 11472,
      "componentType": 5126,
      "count": 534,
      "max": [
        0.8541666865348816,
        1.0
      ],
      "min": [
        0.1458333283662796,
        0.0
      ],
      "type": "VEC2"
    },
    {
      "bufferView": 0,
      "byteOffset": 6876,
      "componentType": 5125,
      "count": 906,
      "type": "SCALAR"
    },
    {
      "bufferView": 2,
      "byteOffset": 47232,
      "componentType": 5126,
      "count": 55,
      "max": [
        3.0,
        -1.826892614364624,
        20.0
      ],
      "min": [
        -3.0,
        -3.0,
        -20.0
      ],
      "type": "VEC3"
    },
    {
      "bufferView": 2,
      "byteOffset": 47892,
      "componentType": 5126,
      "count": 55,
      "max": [
        0.9199270606040955,
        0.0,
        1.0
      ],
      "min": [
        -0.9199270606040955,
        -0.39208999276161194,
        0.0
      ],
      "type": "VEC3"
    },
    {
      "bufferView": 1,
      "byteOffset": 15744,
      "componentType": 5126,
      "count": 55,
      "max": [
        0.3958333432674408,
        0.9791666865348816
      ],
      "min": [
        0.125,
        0.5
      ],
      "type": "VEC2"
    },
    {
      "bufferView": 0,
      "byteOffset": 10500,
      "componentType": 5125,
      "count": 57,
      "type": "SCALAR"
    },
    {
      "bufferView": 2,
      "byteOffset": 48552,
      "componentType": 5126,
      "count": 96,
      "max": [
        2.9747440814971924,
        1.0910658836364746,
        17.25428581237793
      ],
      "min": [
        -2.9747440814971924,
        -0.31143489480018616,
        -17.845712661743164
      ],
      "type": "VEC3"
    },
    {
      "bufferView": 2,
      "byteOffset": 49704,
      "componentType": 5126,
      "count": 96,
      "max": [
        1.0,
        0.0,
        1.2723533870939718e-07
      ],
      "min": [
        -1.0,
        0.0,
        -1.2723533870939718e-07
      ],
      "type": "VEC3"
    },
    {
      "bufferView": 1,
      "byteOffset": 16184,
      "componentType": 5126,
      "count": 96,
      "max": [
        0.5756574869155884,
        0.746874988079071
      ],
      "min": [
        0.4243425726890564,
        0.003124999813735485
      ],
      "type": "VEC2"
    },
    {
      "bufferView": 0,
      "byteOffset": 10728,
      "componentType": 5125,
      "count": 120,
      "type": "SCALAR"
    },
    {
      "bufferView": 2,
      "byteOffset": 50856,
      "componentType": 5126,
      "count": 1443,
      "max": [
        3.134744167327881,
        5.084197521209717,
        20.416547775268555
      ],
      "min": [
        -3.134744167327881,
        -4.503614902496338,
        -20.5
      ],
      "type": "VEC3"
    },
    {
      "bufferView": 2,
      "byteOffset": 68172,
      "componentType": 5126,
      "count": 1443,
      "max": [
        1.0,
        1.0,
        1.0
      ],
      "min": [
        -1.0,
        -1.0,
        -1.0
      ],
      "type": "VEC3"
    },
    {
      "bufferView": 1,
      "byteOffset": 16952,
      "componentType": 5126,
      "count": 1443,
      "max": [
        1.0,
        1.0
      ],
      "min": [
        0.0,
        0.0
      ],
      "type": "VEC2"
    },
    {
      "bufferView": 0,
      "byteOffset": 11208,
      "componentType": 5125,
      "count": 1704,
      "type": "SCALAR"
    },
    {
      "bufferView": 2,
      "byteOffset": 85488,
      "componentType": 5126,
      "count": 679,
      "max": [
        3.134744167327881,
        3.700000047683716,
        20.416547775268555
      ],
      "min": [
        -3.134744167327881,
        -3.799999952316284,
        -20.0
      ],
      "type": "VEC3"
    },
    {
      "bufferView": 2,
      "byteOffset": 93636,
      "componentType": 5126,
      "count": 679,
      "max": [
        1.0,
        1.0,
        1.0
      ],
      "min": [
        -1.0,
        -1.0,
        -1.0
      ],
      "type": "VEC3"
    },
    {
      "bufferView": 1,
      "byteOffset": 28496,
      "componentType": 5126,
      "count": 679,
      "max": [
        0.8669210076332092,
        1.0
      ],
      "min": [
        0.13307900726795197,
        0.0
      ],
      "type": "VEC2"
    },
    {
      "bufferView": 0,
      "byteOffset": 18024,
      "componentType": 5125,
      "count": 1113,
      "type": "SCALAR"
    },
    {
      "bufferView": 2,
      "byteOffset": 101784,
      "componentType": 5126,
      "count": 68,
      "max": [
        3.0,
        -1.826892614364624,
        20.416547775268555
      ],
      "min": [
        -3.0,
        -3.019099235534668,
        -20.0
      ],
      "type": "VEC3"
    },
    {
      "bufferView": 2,
      "byteOffset": 102600,
      "componentType": 5126,
      "count": 68,
      "max": [
        0.9199271202087402,
        -0.19292767345905304,
        0.9812129735946655
      ],
      "min": [
        -0.9199270606040955,
        -0.39558178186416626,
        -0.002469993196427822
      ],
      "type": "VEC3"
    },
    {
      "bufferView": 1,
      "byteOffset": 33928,
      "componentType": 5126,
      "count": 68,
      "max": [
        0.3958333432674408,
        0.75
      ],
      "min": [
        0.125,
        0.0
      ],
      "type": "VEC2"
    },
    {
      "bufferView": 0,
      "byteOffset": 22476,
      "componentType": 5125,
      "count": 69,
      "type": "SCALAR"
    },
    {
      "bufferView": 2,
      "byteOffset": 103416,
      "componentType": 5126,
      "count": 114,
      "max": [
        2.9747440814971924,
        2.68076229095459,
        20.381179809570313
      ],
      "min": [
        -2.9747440814971924,
        -1.5417613983154297,
        -17.845712661743164
      ],
      "type": "VEC3"
    },
    {
      "bufferView": 2,
      "byteOffset": 104784,
      "componentType": 5126,
      "count": 114,
      "max": [
        1.0,
        0.11284732073545456,
        0.9936128258705139
      ],
      "min": [
        -1.0,
        0.0,
        -1.2723533870939718e-07
      ],
      "type": "VEC3"
    },
    {
      "bufferView": 1,
      "byteOffset": 34472,
      "componentType": 5126,
      "count": 114,
      "max": [
        0.7353407740592957,
        0.746874988079071
      ],
      "min": [
        0.4141291677951813,
        0.003124999813735485
      ],
      "type": "VEC2"
    },
    {
      "bufferView": 0,
      "byteOffset": 22752,
      "componentType": 5125,
      "count": 138,
      "type": "SCALAR"
    },
    {
      "bufferView": 2,
      "byteOffset": 106152,
      "componentType": 5126,
      "count": 12,
      "max": [
        1.815106987953186,
        -2.404783010482788,
        20.404932022094727
      ],
      "min": [
        -1.8151068687438965,
        -2.803731918334961,
        20.404932022094727
      ],
      "type": "VEC3"
    },
    {
      "bufferView": 2,
      "byteOffset": 106296,
      "componentType": 5126,
      "count": 12,
      "max": [
        0.0,
        0.0,
        1.0
      ],
      "min": [
        0.0,
        0.0,
        1.0
      ],
      "type": "VEC3"
    },
    {
      "bufferView": 1,
      "byteOffset": 35384,
      "componentType": 5126,
      "count": 12,
      "max": [
        0.6136858463287354,
        0.9985244274139404
      ],
      "min": [
        0.38631418347358704,
        0.7514756321907043
      ],
      "type": "VEC2"
    },
    {
      "bufferView": 0,
      "byteOffset": 23304,
      "componentType": 5125,
      "count": 24,
      "type": "SCALAR"
    },
    {
      "bufferView": 2,
      "byteOffset": 106440,
      "componentType": 5126,
      "count": 12,
      "max": [
        1.4228432178497314,
        -2.404783010482788,
        20.404932022094727
      ],
      "min": [
        -1.4228432178497314,
        -2.803731918334961,
        20.404932022094727
      ],
      "type": "VEC3"
    },
    {
      "bufferView": 2,
      "byteOffset": 106584,
      "componentType": 5126,
      "count": 12,
      "max": [
        0.0,
        -3.1861707157077035e-06,
        1.0
      ],
      "min": [
        0.0,
        -9.235963261744473e-06,
        1.0
      ],
      "type": "VEC3"
    },
    {
      "bufferView": 1,
      "byteOffset": 35480,
      "componentType": 5126,
      "count": 12,
      "max": [
        0.6136858463287354,
        0.9583333134651184
      ],
      "min": [
        0.38631418347358704,
        0.7916666269302368
      ],
      "type": "VEC2"
    },
    {
      "bufferView": 0,
      "byteOffset": 23400,
      "componentType": 5125,
      "count": 24,
      "type": "SCALAR"
    },
    {
      "bufferView": 2,
      "byteOffset": 106728,
      "componentType": 5126,
      "count": 1152,
      "max": [
        2.799999952316284,
        0.06869101524353027,
        0.25
      ],
      "min": [
        -2.799999952316284,
        -0.06869101524353027,
        -94.25
      ],
      "type": "VEC3"
    },
    {
      "bufferView": 2,
      "byteOffset": 120552,
      "componentType": 5126,
      "count": 1152,
      "max": [
        1.0,
        1.0,
        1.0
      ],
      "min": [
        -1.0,
        -1.0,
        -1.0
      ],
      "type": "VEC3"
    },
    {
      "bufferView": 1,
      "byteOffset": 35576,
      "componentType": 5126,
      "count": 1152,
      "max": [
        0.875,
        1.0
      ],
      "min": [
        0.125,
        0.0
      ],
      "type": "VEC2"
    },
    {
      "bufferView": 0,
      "byteOffset": 23496,
      "componentType": 5125,
      "count": 1728,
      "type": "SCALAR"
    },
    {
      "bufferView": 2,
      "byteOffset": 134376,
      "componentType": 5126,
      "count": 48,
      "max": [
        1.899999976158142,
        0.24062499403953552,
        1.0
      ],
      "min": [
        -1.899999976158142,
        -0.04062499850988388,
        -95.0
      ],
      "type": "VEC3"
    },
    {
      "bufferView": 2,
      "byteOffset": 134952,
      "componentType": 5126,
      "count": 48,
      "max": [
        1.0,
        1.0,
        1.0
      ],
      "min": [
        -1.0,
        -1.0,
        -1.0
      ],
      "type": "VEC3"
    },
    {
      "bufferView": 1,
      "byteOffset": 44792,
      "componentType": 5126,
      "count": 48,
      "max": [
        0.875,
        0.9166666269302368
      ],
      "min": [
        0.125,
        0.0
      ],
      "type": "VEC2"
    },
    {
      "bufferView": 0,
      "byteOffset": 30408,
      "componentType": 5125,
      "count": 72,
      "type": "SCALAR"
    },
    {
      "bufferView": 2,
      "byteOffset": 135528,
      "componentType": 5126,
      "count": 140,
      "max": [
        0.29166173934936523,
        11.790094375610352,
        72.1522216796875
      ],
      "min": [
        -5.868807315826416,
        0.0,
        -31.1522216796875
      ],
      "type": "VEC3"
    },
    {
      "bufferView": 2,
      "byteOffset": 137208,
      "componentType": 5126,
      "count": 140,
      "max": [
        1.0,
        1.0,
        1.0
      ],
      "min": [
        -1.0,
        -1.0,
        -1.0
      ],
      "type": "VEC3"
    },
    {
      "bufferView": 1,
      "byteOffset": 45176,
      "componentType": 5126,
      "count": 140,
      "max": [
        0.875,
        1.0
      ],
      "min": [
        0.125,
        0.0
      ],
      "type": "VEC2"
    },
    {
      "bufferView": 0,
      "byteOffset": 30696,
      "componentType": 5125,
      "count": 228,
      "type": "SCALAR"
    }
  ],
  "asset": {
    "extras": {
      "author": "Sudhanshu Verma (https://sketchfab.com/sudhanshuverma123)",
      "license": "CC-BY-4.0 (http://creativecommons.org/licenses/by/4.0/)",
      "source": "https://sketchfab.com/3d-models/low-poly-train-f9620a9de70b4611979db24e48e5fded",
      "title": "Low Poly Train"
    },
    "generator": "Sketchfab-16.0.0",
    "version": "2.0"
  },
  "bufferViews": [
    {
      "buffer": 0,
      "byteLength": 31608,
      "name": "floatBufferViews",
      "target": 34963
    },
    {
      "buffer": 0,
      "byteLength": 46296,
      "byteOffset": 31608,
      "byteStride": 8,
      "name": "floatBufferViews",
      "target": 34962
    },
    {
      "buffer": 0,
      "byteLength": 138888,
      "byteOffset": 77904,
      "byteStride": 12,
      "name": "floatBufferViews",
      "target": 34962
    }
  ],
  "buffers": [
    {
      "byteLength": 216792,
      "uri": "scene.bin"
    }
  ],
  "materials": [
    {
      "doubleSided": true,
      "name": "DarkGrey",
      "pbrMetallicRoughness": {
        "baseColorFactor": [
          0.0412322,
          0.0412322,
          0.0412322,
          1.0
        ],
        "metallicFactor": 0.0,
        "roughnessFactor": 0.9907801997938133
      }
    },
    {
      "doubleSided": true,
      "name": "Primary",
      "pbrMetallicRoughness": {
        "baseColorFactor": [
          0.475142,
          0.475142,
          0.475142,
          1.0
        ],
        "metallicFactor": 0.0,
        "roughnessFactor": 0.8937550189034795
      }
    },
    {
      "doubleSided": true,
      "name": "Secondary",
      "pbrMetallicRoughness": {
        "baseColorFactor": [
          0.243164,
          0.323973,
          0.551902,
          1.0
        ],
        "metallicFactor": 0.0,
        "roughnessFactor": 0.9277192188134114
      }
    },
    {
      "doubleSided": true,
      "name": "Window",
      "pbrMetallicRoughness": {
        "baseColorFactor": [
          0.264699,
          0.599142,
          0.65233,
          1.0
        ],
        "metallicFactor": 0.0,
        "roughnessFactor": 0.881068107689036
      }
    },
    {
      "doubleSided": true,
      "emissiveFactor": [
        1.0,
        0.0,
        0.00259166
      ],
      "name": "RedLight",
      "pbrMetallicRoughness": {
        "baseColorFactor": [
          0.800071,
          0.00115961,
          0.0,
          1.0
        ],
        "metallicFactor": 0.0,
        "roughnessFactor": 0.9617801315988802
      }
    },
    {
      "doubleSided": true,
      "emissiveFactor": [
        1.0,
        0.94664,
        0.0
      ],
      "name": "YellowLight",
      "pbrMetallicRoughness": {
        "baseColorFactor": [
          1.0,
          0.923993,
          0.0847887,
          1.0
        ],
        "metallicFactor": 0.0,
        "roughnessFactor": 0.8033240611219113
      }
    },
    {
      "doubleSided": true,
      "name": "Wood",
      "pbrMetallicRoughness": {
        "baseColorFactor": [
          0.466777,
          0.379801,
          0.272812,
          1.0
        ],
        "metallicFactor": 0.0,
        "roughnessFactor": 0.9126664538533609
      }
    },
    {
      "doubleSided": true,
      "name": "Rail",
      "pbrMetallicRoughness": {
        "baseColorFactor": [
          0.132891,
          0.132863,
          0.132859,
          1.0
        ],
        "metallicFactor": 0.0,
        "roughnessFactor": 0.970289663521642
      }
    }
  ],
  "meshes": [
    {
      "name": "Coach2_DarkGrey_0",
      "primitives": [
        {
          "attributes": {
            "NORMAL": 1,
            "POSITION": 0,
            "TEXCOORD_0": 2
          },
          "indices": 3,
          "material": 0,
          "mode": 4
        }
      ]
    },
    {
      "name": "Coach2_Primary_0",
      "primitives": [
        {
          "attributes": {
            "NORMAL": 5,
            "POSITION": 4,
            "TEXCOORD_0": 6
          },
          "indices": 7,
          "material": 1,
          "mode": 4
        }
      ]
    },
    {
      "name": "Coach2_Secondary_0",
      "primitives": [
        {
          "attributes": {
            "NORMAL": 9,
            "POSITION": 8,
            "TEXCOORD_0": 10
          },
          "indices": 11,
          "material": 2,
          "mode": 4
        }
      ]
    },
    {
      "name": "Coach2_Window_0",
      "primitives": [
        {
          "attributes": {
            "NORMAL": 13,
            "POSITION": 12,
            "TEXCOORD_0": 14
          },
          "indices": 15,
          "material": 3,
          "mode": 4
        }
      ]
    },
    {
      "name": "Coach1_DarkGrey_0",
      "primitives": [
        {
          "attributes": {
            "NORMAL": 17,
            "POSITION": 16,
            "TEXCOORD_0": 18
          },
          "indices": 19,
          "material": 0,
          "mode": 4
        }
      ]
    },
    {
      "name": "Coach1_Primary_0",
      "primitives": [
        {
          "attributes": {
            "NORMAL": 21,
            "POSITION": 20,
            "TEXCOORD_0": 22
          },
          "indices": 23,
          "material": 1,
          "mode": 4
        }
      ]
    },
    {
      "name": "Coach1_Secondary_0",
      "primitives": [
        {
          "attributes": {
            "NORMAL": 25,
            "POSITION": 24,
            "TEXCOORD_0": 26
          },
          "indices": 27,
          "material": 2,
          "mode": 4
        }
      ]
    },
    {
      "name": "Coach1_Window_0",
      "primitives": [
        {
          "attributes": {
            "NORMAL": 29,
            "POSITION": 28,
            "TEXCOORD_0": 30
          },
          "indices": 31,
          "material": 3,
          "mode": 4
        }
      ]
    },
    {
      "name": "Coach1_RedLight_0",
      "primitives": [
        {
          "attributes": {
            "NORMAL": 33,
            "POSITION": 32,
            "TEXCOORD_0": 34
          },
          "indices": 35,
          "material": 4,
          "mode": 4
        }
      ]
    },
    {
      "name": "Coach1_YellowLight_0",
      "primitives": [
        {
          "attributes": {
            "NORMAL": 37,
            "POSITION": 36,
            "TEXCOORD_0": 38
          },
          "indices": 39,
          "material": 5,
          "mode": 4
        }
      ]
    },
    {
      "name": "Rail_Wood_0",
      "primitives": [
        {
          "attributes": {
            "NORMAL": 41,
            "POSITION": 40,
            "TEXCOORD_0": 42
          },
          "indices": 43,
          "material": 6,
          "mode": 4
        }
      ]
    },
    {
      "name": "Rail_Rail_0",
      "primitives": [
        {
          "attributes": {
            "NORMAL": 45,
            "POSITION": 44,
            "TEXCOORD_0": 46
          },
          "indices": 47,
          "material": 7,
          "mode": 4
        }
      ]
    },
    {
      "name": "Cable_Rail_0",
      "primitives": [
        {
          "attributes": {
            "NORMAL": 49,
            "POSITION": 48,
            "TEXCOORD_0": 50
          },
          "indices": 51,
          "material": 7,
          "mode": 4
        }
      ]
    }
  ],
  "nodes": [
    {
      "children": [
        1
      ],
      "matrix": [
        1.0,
        0.0,
        0.0,
        0.0,
        0.0,
        2.220446049250313e-16,
        -1.0,
        0.0,
        0.0,
        1.0,
        2.220446049250313e-16,
        0.0,
        0.0,
        0.0,
        0.0,
        1.0
      ],
      "name": "Sketchfab_model"
    },
    {
      "children": [
        2
      ],
      "matrix": [
        1.0,
        0.0,
        0.0,
        0.0,
        0.0,
        0.0,
        1.0,
        0.0,
        0.0,
        -1.0,
        0.0,
        0.0,
        0.0,
        0.0,
        0.0,
        1.0
      ],
      "name": "f96079a0c78348d183161b587d935197.fbx"
    },
    {
      "children": [
        3,
        8,
        15,
        18
      ],
      "name": "RootNode"
    },
    {
      "children": [
        4,
        5,
        6,
        7
      ],
      "matrix": [
        1.0,
        0.0,
        0.0,
        0.0,
        0.0,
        1.0,
        0.0,
        0.0,
        0.0,
        0.0,
        1.0,
        0.0,
        0.0,
        4.755084037780762,
        0.0,
        1.0
      ],
      "name": "Coach2"
    },
    {
      "mesh": 0,
      "name": "Coach2_DarkGrey_0"
    },
    {
      "mesh": 1,
      "name": "Coach2_Primary_0"
    },
    {
      "mesh": 2,
      "name": "Coach2_Secondary_0"
    },
    {
      "mesh": 3,
      "name": "Coach2_Window_0"
    },
    {
      "children": [
        9,
        10,
        11,
        12,
        13,
        14
      ],
      "matrix": [
        1.0,
        0.0,
        0.0,
        0.0,
        0.0,
        1.0,
        0.0,
        0.0,
        0.0,
        0.0,
        1.0,
        0.0,
        0.0,
        4.755084037780762,
        41.0,
        1.0
      ],
      "name": "Coach1"
    },
    {
      "mesh": 4,
      "name": "Coach1_DarkGrey_0"
    },
    {
      "mesh": 5,
      "name": "Coach1_Primary_0"
    },
    {
      "mesh": 6,
      "name": "Coach1_Secondary_0"
    },
    {
      "mesh": 7,
      "name": "Coach1_Window_0"
    },
    {
      "mesh": 8,
      "name": "Coach1_RedLight_0"
    },
    {
      "mesh": 9,
      "name": "Coach1_YellowLight_0"
    },
    {
      "children": [
        16,
        17
      ],
      "matrix": [
        1.0,
        0.0,
        0.0,
        0.0,
        0.0,
        1.0,
        0.0,
        0.0,
        0.0,
        0.0,
        1.0,
        0.0,
        0.0,
        0.0,
        66.0,
        1.0
      ],
      "name": "Rail"
    },
    {
      "mesh": 10,
      "name": "Rail_Wood_0"
    },
    {
      "mesh": 11,
      "name": "Rail_Rail_0"
    },
    {
      "children": [
        19
      ],
      "name": "Cable"
    },
    {
      "mesh": 12,
      "name": "Cable_Rail_0"
    }
  ],
  "scene": 0,
  "scenes": [
    {
      "name": "Sketchfab_Scene",
      "nodes": [
        0
      ]
    }
  ]
}
