{
  "accessors": [
    {
      "bufferView": 2,
      "componentType": 5126,
      "count": 1576,
      "max": [
        7.676119804382324,
        7.502150058746338,
        24.185440063476563
      ],
      "min": [
        -8.922499656677246,
        -10.928689956665039,
        -1.0
      ],
      "type": "VEC3"
    },
    {
      "bufferView": 2,
      "byteOffset": 18912,
      "componentType": 5126,
      "count": 1576,
      "max": [
        0.9989234805107117,
        0.997516930103302,
        0.9975540637969971
      ],
      "min": [
        -0.998595118522644,
        -0.9939786791801453,
        -1.0
      ],
      "type": "VEC3"
    },
    {
      "bufferView": 1,
      "componentType": 5126,
      "count": 1576,
      "max": [
        0.9936100244522095,
        0.9933800101280212
      ],
      "min": [
        0.0033100000582635403,
        0.0066200001165270805
      ],
      "type": "VEC2"
    },
    {
      "bufferView": 0,
      "componentType": 5125,
      "count": 1644,
      "type": "SCALAR"
    },
    {
      "bufferView": 2,
      "byteOffset": 37824,
      "componentType": 5126,
      "count": 312,
      "max": [
        8.451370239257813,
        9.124810218811035,
        26.58622932434082
      ],
      "min": [
        -7.544370174407959,
        -6.8077898025512695,
        -1.0
      ],
      "type": "VEC3"
    },
    {
      "bufferView": 2,
      "byteOffset": 41568,
      "componentType": 5126,
      "count": 312,
      "max": [
        0.9999343156814575,
        0.9997990727424622,
        1.0
      ],
      "min": [
        -0.9999361634254456,
        -0.9961444139480591,
        -1.0
      ],
      "type": "VEC3"
    },
    {
      "bufferView": 1,
      "byteOffset": 12608,
      "componentType": 5126,
      "count": 312,
      "max": [
        0.9921600222587585,
        0.9854400157928467
      ],
      "min": [
        0.007280000019818544,
        0.014560000039637089
      ],
      "type": "VEC2"
    },
    {
      "bufferView": 0,
      "byteOffset": 6576,
      "componentType": 5125,
      "count": 348,
      "type": "SCALAR"
    },
    {
      "bufferView": 2,
      "byteOffset": 45312,
      "componentType": 5126,
      "count": 312,
      "max": [
        4.900440216064453,
        6.85250997543335,
        36.687049865722656
      ],
      "min": [
        -6.245540142059326,
        -5.597670078277588,
        -1.0
      ],
      "type": "VEC3"
    },
    {
      "bufferView": 2,
      "byteOffset": 49056,
      "componentType": 5126,
      "count": 312,
      "max": [
        0.9991509318351746,
        0.9980199933052063,
        1.0
      ],
      "min": [
        -0.9988113045692444,
        -0.997551679611206,
        -1.0
      ],
      "type": "VEC3"
    },
    {
      "bufferView": 1,
      "byteOffset": 15104,
      "componentType": 5126,
      "count": 312,
      "max": [
        0.9924799799919128,
        0.9849600195884705
      ],
      "min": [
        0.009329999797046185,
        0.015039999969303608
      ],
      "type": "VEC2"
    },
    {
      "bufferView": 0,
      "byteOffset": 7968,
      "componentType": 5125,
      "count": 348,
      "type": "SCALAR"
    },
    {
      "bufferView": 2,
      "byteOffset": 52800,
      "componentType": 5126,
      "count": 312,
      "max": [
        0.9336000084877014,
        1.8148499727249146,
        2.6010899543762207
      ],
      "min": [
        -2.7158899307250977,
        -1.8259600400924683,
        -3.553179979324341
      ],
      "type": "VEC3"
    },
    {
      "bufferView": 2,
      "byteOffset": 56544,
      "componentType": 5126,
      "count": 312,
      "max": [
        0.9974778294563293,
        0.998363196849823,
        1.0
      ],
      "min": [
        -0.9975637197494507,
        -0.9999465346336365,
        -1.0
      ],
      "type": "VEC3"
    },
    {
      "bufferView": 1,
      "byteOffset": 17600,
      "componentType": 5126,
      "count": 312,
      "max": [
        0.9914799928665161,
        0.9937599897384644
      ],
      "min": [
        0.003120000008493662,
        0.006240000016987324
      ],
      "type": "VEC2"
    },
    {
      "bufferView": 0,
      "byteOffset": 9360,
      "componentType": 5125,
      "count": 468,
      "type": "SCALAR"
    },
    {
      "bufferView": 2,
      "byteOffset": 60288,
      "componentType": 5126,
      "count": 560,
      "max": [
        5.55433988571167,
        11.540160179138184,
        30.41931915283203
      ],
      "min": [
        -6.576280117034912,
        -8.663189888000488,
        -1.0
      ],
      "type": "VEC3"
    },
    {
      "bufferView": 2,
      "byteOffset": 67008,
      "componentType": 5126,
      "count": 560,
      "max": [
        0.9999039173126221,
        0.9997395277023315,
        1.0
      ],
      "min": [
        -0.9999493956565857,
        -0.9980875253677368,
        -1.0
      ],
      "type": "VEC3"
    },
    {
      "bufferView": 1,
      "byteOffset": 20096,
      "componentType": 5126,
      "count": 560,
      "max": [
        0.9968299865722656,
        0.9936500191688538
      ],
      "min": [
        0.0034799999557435513,
        0.00634999992325902
      ],
      "type": "VEC2"
    },
    {
      "bufferView": 0,
      "byteOffset": 11232,
      "componentType": 5125,
      "count": 660,
      "type": "SCALAR"
    },
    {
      "bufferView": 2,
      "byteOffset": 73728,
      "componentType": 5126,
      "count": 1512,
      "max": [
        7.8626298904418945,
        7.921649932861328,
        34.70751190185547
      ],
      "min": [
        -9.186400413513184,
        -7.897240161895752,
        -1.0
      ],
      "type": "VEC3"
    },
    {
      "bufferView": 2,
      "byteOffset": 91872,
      "componentType": 5126,
      "count": 1512,
      "max": [
        0.9996244311332703,
        0.9988456964492798,
        1.0
      ],
      "min": [
        -0.9996408224105835,
        -0.9998102188110352,
        -1.0
      ],
      "type": "VEC3"
    },
    {
      "bufferView": 1,
      "byteOffset": 24576,
      "componentType": 5126,
      "count": 1512,
      "max": [
        0.9990100264549255,
        0.99795001745224
      ],
      "min": [
        0.007519999984651804,
        0.002050000010058284
      ],
      "type": "VEC2"
    },
    {
      "bufferView": 0,
      "byteOffset": 13872,
      "componentType": 5125,
      "count": 1548,
      "type": "SCALAR"
    }
  ],
  "asset": {
    "extras": {
      "author": "PeToDes (https://sketchfab.com/PeToDes)",
      "license": "CC-BY-4.0 (http://creativecommons.org/licenses/by/4.0/)",
      "source": "https://sketchfab.com/3d-models/low-poly-trees-free-asset-pack-13968bae706b4d6ba5074be9a0a0f974",
      "title": "Low Poly Trees - Free Asset Pack"
    },
    "generator": "Sketchfab-12.68.0",
    "version": "2.0"
  },
  "bufferViews": [
    {
      "buffer": 0,
      "byteLength": 20064,
      "name": "floatBufferViews",
      "target": 34963
    },
    {
      "buffer": 0,
      "byteLength": 36672,
      "byteOffset": 20064,
      "byteStride": 8,
      "name": "floatBufferViews",
      "target": 34962
    },
    {
      "buffer": 0,
      "byteLength": 110016,
      "byteOffset": 56736,
      "byteStride": 12,
      "name": "floatBufferViews",
      "target": 34962
    }
  ],
  "buffers": [
    {
      "byteLength": 166752,
      "uri": "scene.bin"
    }
  ],
  "images": [
    {
      "uri": "textures/Colors_baseColor.png"
    }
  ],
  "materials": [
    {
      "doubleSided": true,
      "name": "Colors",
      "pbrMetallicRoughness": {
        "baseColorTexture": {
          "index": 0
        },
        "metallicFactor": 0.0,
        "roughnessFactor": 0.6
      }
    }
  ],
  "meshes": [
    {
      "name": "Tree 6_0",
      "primitives": [
        {
          "attributes": {
            "NORMAL": 1,
            "POSITION": 0,
            "TEXCOORD_0": 2
          },
          "indices": 3,
          "material": 0,
          "mode": 4
        }
      ]
    },
    {
      "name": "Tree 5_0",
      "primitives": [
        {
          "attributes": {
            "NORMAL": 5,
            "POSITION": 4,
            "TEXCOORD_0": 6
          },
          "indices": 7,
          "material": 0,
          "mode": 4
        }
      ]
    },
    {
      "name": "Tree 4_0",
      "primitives": [
        {
          "attributes": {
            "NORMAL": 9,
            "POSITION": 8,
            "TEXCOORD_0": 10
          },
          "indices": 11,
          "material": 0,
          "mode": 4
        }
      ]
    },
    {
      "name": "Tree 3_0",
      "primitives": [
        {
          "attributes": {
            "NORMAL": 13,
            "POSITION": 12,
            "TEXCOORD_0": 14
          },
          "indices": 15,
          "material": 0,
          "mode": 4
        }
      ]
    },
    {
      "name": "Tree 2_0",
      "primitives": [
        {
          "attributes": {
            "NORMAL": 17,
            "POSITION": 16,
            "TEXCOORD_0": 18
          },
          "indices": 19,
          "material": 0,
          "mode": 4
        }
      ]
    },
    {
      "name": "Tree 1_0",
      "primitives": [
        {
          "attributes": {
            "NORMAL": 21,
            "POSITION": 20,
            "TEXCOORD_0": 22
          },
          "indices": 23,
          "material": 0,
          "mode": 4
        }
      ]
    }
  ],
  "nodes": [
    {
      "children": [
        1
      ],
      "matrix": [
        0.15230882167816162,
        0.0,
        0.0,
        0.0,
        0.0,
        3.381935213612444e-17,
        -0.15230882167816162,
        0.0,
        0.0,
        0.15230882167816162,
        3.381935213612444e-17,
        0.0,
        0.0,
        0.0,
        0.0,
        1.0
      ],
      "name": "Sketchfab_model"
    },
    {
      "children": [
        2,
        4,
        6,
        8,
        10,
        12
      ],
      "name": "Root"
    },
    {
      "children": [
        3
      ],
      "matrix": [
        0.25895,
        0.0,
        0.0,
        0.0,
        0.0,
        0.25895,
        0.0,
        0.0,
        0.0,
        0.0,
        0.25895,
        0.0,
        0.0,
        33.22204000000001,
        -0.78644,
        1.0
      ],
      "name": "Tree 6"
    },
    {
      "mesh": 0,
      "name": "Tree 6_0"
    },
    {
      "children": [
        5
      ],
      "matrix": [
        0.24648000000000003,
        0.0,
        0.0,
        0.0,
        0.0,
        0.24648000000000003,
        0.0,
        0.0,
        0.0,
        0.0,
        0.24648000000000003,
        0.0,
        0.0,
        26.442469999999997,
        -0.90413,
        1.0
      ],
      "name": "Tree 5"
    },
    {
      "mesh": 1,
      "name": "Tree 5_0"
    },
    {
      "children": [
        7
      ],
      "matrix": [
        0.19104000000000004,
        0.0,
        0.0,
        0.0,
        0.0,
        0.19104000000000004,
        0.0,
        0.0,
        0.0,
        0.0,
        0.19104000000000004,
        0.0,
        0.0,
        20.63528,
        -0.9677400000000002,
        1.0
      ],
      "name": "Tree 4"
    },
    {
      "mesh": 2,
      "name": "Tree 4_0"
    },
    {
      "children": [
        9
      ],
      "matrix": [
        1.0,
        0.0,
        0.0,
        0.0,
        0.0,
        1.0,
        0.0,
        0.0,
        0.0,
        0.0,
        1.0,
        0.0,
        0.54428,
        15.39493,
        2.3944099999999997,
        1.0
      ],
      "name": "Tree 3"
    },
    {
      "mesh": 3,
      "name": "Tree 3_0"
    },
    {
      "children": [
        11
      ],
      "matrix": [
        0.21221000000000004,
        0.0,
        0.0,
        0.0,
        0.0,
        0.21221000000000004,
        0.0,
        0.0,
        0.0,
        0.0,
        0.21221000000000004,
        0.0,
        0.0,
        9.85031,
        -1.04449,
        1.0
      ],
      "name": "Tree 2"
    },
    {
      "mesh": 4,
      "name": "Tree 2_0"
    },
    {
      "children": [
        13
      ],
      "matrix": [
        0.16643000000000005,
        0.0,
        0.0,
        0.0,
        0.0,
        0.16643000000000005,
        0.0,
        0.0,
        0.0,
        0.0,
        0.16643000000000005,
        0.0,
        0.0,
        4.8886400000000005,
        -0.96128,
        1.0
      ],
      "name": "Tree 1"
    },
    {
      "mesh": 5,
      "name": "Tree 1_0"
    }
  ],
  "samplers": [
    {
      "magFilter": 9729,
      "minFilter": 9987,
      "wrapS": 10497,
      "wrapT": 10497
    }
  ],
  "scene": 0,
  "scenes": [
    {
      "name": "Sketchfab_Scene",
      "nodes": [
        0
      ]
    }
  ],
  "textures": [
    {
      "sampler": 0,
      "source": 0
    }
  ]
}
